<?xml version="1.0" encoding="utf-8"?>
<!-- Generator: Adobe Illustrator 24.3.0, SVG Export Plug-In . SVG Version: 6.00 Build 0)  -->
<svg version="1.1" id="Layer_1" xmlns="http://www.w3.org/2000/svg" xmlns:xlink="http://www.w3.org/1999/xlink" x="0px" y="0px"
	 viewBox="0 0 250 83.4" style="enable-background:new 0 0 250 83.4;" xml:space="preserve">
<style type="text/css">
	.st0{fill:#02AFD7;}
	.st1{fill:url(#SVGID_1_);}
	.st2{fill:url(#SVGID_2_);}
	.st3{fill:url(#SVGID_3_);}
	.st4{fill:url(#SVGID_4_);}
	.st5{fill:#232D61;}
	.st6{fill:url(#SVGID_5_);}
	.st7{fill:url(#SVGID_6_);}
	.st8{fill:url(#SVGID_7_);}
	.st9{fill:url(#SVGID_8_);}
	.st10{fill:url(#SVGID_9_);}
	.st11{fill:url(#SVGID_10_);}
	.st12{fill:url(#SVGID_11_);}
	.st13{fill:url(#SVGID_12_);}
	.st14{fill:url(#SVGID_13_);}
	.st15{fill:url(#SVGID_14_);}
	.st16{fill:url(#SVGID_15_);}
	.st17{fill:url(#SVGID_16_);}
	.st18{fill:url(#SVGID_17_);}
	.st19{fill:url(#SVGID_18_);}
	.st20{fill:url(#SVGID_19_);}
	.st21{fill:url(#SVGID_20_);}
	.st22{fill:url(#SVGID_21_);}
	.st23{fill:url(#SVGID_22_);}
	.st24{fill:url(#SVGID_23_);}
	.st25{fill:url(#SVGID_24_);}
	.st26{fill:url(#SVGID_25_);}
	.st27{fill:url(#SVGID_26_);}
	.st28{fill:#10AACE;}
</style>
<rect x="197.4" y="14.2" class="st0" width="7.6" height="7.6"/>
<linearGradient id="SVGID_1_" gradientUnits="userSpaceOnUse" x1="65.91" y1="34.09" x2="97" y2="34.09">
	<stop  offset="0" style="stop-color:#13163F"/>
	<stop  offset="1" style="stop-color:#151943"/>
</linearGradient>
<path class="st1" d="M97,41.8c0-2.1-0.6-3.9-1.7-5.3c-1.1-1.4-2.6-2.5-4.6-3.1c1.4-0.7,2.5-1.8,3.3-3c0.8-1.3,1.2-2.8,1.2-4.4
	c0-2.7-1.1-4.9-3.3-6.4s-5.4-2.4-9.5-2.4H65.9V51h17.5c4.4,0,7.8-0.8,10.1-2.4C95.8,47,97,44.8,97,41.8z M73.7,23h7.8
	c1.9,0,3.4,0.3,4.4,1s1.5,1.6,1.5,3c0,1.3-0.5,2.3-1.5,3s-2.5,1-4.4,1h-7.8V23z M87.5,44.1c-1.1,0.7-2.6,1-4.7,1h-9.2v-8.4h9.2
	c4.2,0,6.2,1.4,6.2,4.2C89.1,42.4,88.6,43.4,87.5,44.1z"/>
<linearGradient id="SVGID_2_" gradientUnits="userSpaceOnUse" x1="102.65" y1="34.38" x2="133.36" y2="34.38">
	<stop  offset="0" style="stop-color:#13163F"/>
	<stop  offset="1" style="stop-color:#151943"/>
</linearGradient>
<path class="st2" d="M129.3,47.6c2.7-2.7,4-6.5,4-11.5v-19h-7.8v18.7c0,3.1-0.7,5.4-1.9,6.9s-3.2,2.2-5.6,2.2c-5,0-7.6-3-7.6-9.1
	V17.1h-7.8v19c0,5,1.3,8.8,4,11.5c2.7,2.7,6.5,4,11.3,4C122.9,51.6,126.6,50.3,129.3,47.6z"/>
<linearGradient id="SVGID_3_" gradientUnits="userSpaceOnUse" x1="135.93" y1="34.09" x2="170.07" y2="34.09">
	<stop  offset="0" style="stop-color:#13163F"/>
	<stop  offset="1" style="stop-color:#151943"/>
</linearGradient>
<polygon class="st3" points="162.4,17.1 153.3,32.2 144.3,17.1 135.9,17.1 149.1,38.9 149.1,51 156.9,51 156.9,39 170.1,17.1 "/>
<polygon class="st0" points="192.1,25 169.6,25 169.6,30.8 182.6,30.8 169.3,46.5 169.3,51 192.5,51 192.5,45.2 178.8,45.2 
	192.1,29.5 "/>
<rect x="197.4" y="25" class="st0" width="7.6" height="26"/>
<path class="st0" d="M235.6,27.5c-2-1.9-4.6-2.9-7.8-2.9c-1.8,0-3.4,0.3-4.9,0.9c-1.5,0.6-2.7,1.5-3.7,2.5v-3H212v26h7.6V38.2
	c0-2.3,0.6-4.1,1.7-5.2c1.1-1.2,2.6-1.8,4.6-1.8c1.7,0,3,0.5,3.9,1.5c0.9,1,1.4,2.6,1.4,4.6V51h7.6V36.1
	C238.6,32.3,237.6,29.4,235.6,27.5z"/>
<linearGradient id="SVGID_4_" gradientUnits="userSpaceOnUse" x1="65.4" y1="63.465" x2="73.28" y2="63.465">
	<stop  offset="0" style="stop-color:#13163F"/>
	<stop  offset="1" style="stop-color:#151943"/>
</linearGradient>
<path class="st4" d="M71.6,63.4c-0.5-0.2-1.1-0.4-1.8-0.5c-0.6-0.1-1.1-0.3-1.4-0.4c-0.3-0.1-0.6-0.3-0.9-0.5s-0.3-0.5-0.3-0.8
	c0-0.5,0.2-0.9,0.6-1.2s1-0.5,1.9-0.5c0.5,0,0.9,0.1,1.4,0.2s0.9,0.3,1.4,0.6l0.5-1.2c-0.4-0.3-0.9-0.5-1.5-0.7
	c-0.6-0.2-1.2-0.2-1.8-0.2c-0.9,0-1.6,0.1-2.2,0.4s-1,0.6-1.3,1s-0.4,0.9-0.4,1.5c0,0.7,0.2,1.2,0.5,1.5c0.3,0.4,0.7,0.7,1.2,0.8
	c0.5,0.2,1.1,0.4,1.9,0.6c0.6,0.2,1.1,0.3,1.4,0.4c0.3,0.1,0.6,0.3,0.8,0.5s0.3,0.5,0.3,0.8c0,0.5-0.2,0.9-0.6,1.2s-1.1,0.4-1.9,0.4
	c-0.6,0-1.3-0.1-1.9-0.3s-1.1-0.5-1.5-0.8l-0.5,1.1c0.4,0.4,1,0.7,1.7,0.9c0.7,0.2,1.5,0.4,2.2,0.4c0.9,0,1.6-0.1,2.2-0.4
	s1-0.6,1.3-1.1s0.4-0.9,0.4-1.5c0-0.6-0.2-1.2-0.5-1.5C72.4,63.9,72.1,63.6,71.6,63.4z"/>
<path class="st5" d="M75.9,57.5c-0.3,0-0.5,0.1-0.7,0.3S75,58.2,75,58.5s0.1,0.5,0.3,0.6c0.2,0.2,0.4,0.3,0.7,0.3s0.5-0.1,0.7-0.3
	s0.3-0.4,0.3-0.7c0-0.2-0.1-0.5-0.3-0.6C76.4,57.6,76.2,57.5,75.9,57.5z"/>
<linearGradient id="SVGID_5_" gradientUnits="userSpaceOnUse" x1="75.21" y1="64.705" x2="76.61" y2="64.705">
	<stop  offset="0" style="stop-color:#13163F"/>
	<stop  offset="1" style="stop-color:#151943"/>
</linearGradient>
<rect x="75.2" y="60.8" class="st6" width="1.4" height="7.7"/>
<linearGradient id="SVGID_6_" gradientUnits="userSpaceOnUse" x1="79.29" y1="64.68" x2="92.13" y2="64.68">
	<stop  offset="0" style="stop-color:#13163F"/>
	<stop  offset="1" style="stop-color:#151943"/>
</linearGradient>
<path class="st7" d="M89,60.8c-0.7,0-1.2,0.1-1.8,0.4c-0.5,0.2-0.9,0.6-1.2,1c-0.2-0.5-0.6-0.8-1.1-1.1c-0.5-0.2-1-0.4-1.6-0.4
	c-0.6,0-1.1,0.1-1.6,0.3c-0.5,0.2-0.8,0.5-1.1,0.9v-1.2h-1.3v7.7h1.4v-4c0-0.8,0.2-1.5,0.6-1.9c0.4-0.4,1-0.7,1.7-0.7
	c0.6,0,1.1,0.2,1.5,0.6c0.3,0.4,0.5,0.9,0.5,1.7v4.3h1.4v-4c0-0.8,0.2-1.5,0.6-1.9s1-0.7,1.7-0.7c0.6,0,1.1,0.2,1.5,0.6
	s0.5,0.9,0.5,1.7v4.3h1.4v-4.4c0-1.1-0.3-2-0.8-2.5S89.9,60.8,89,60.8z"/>
<linearGradient id="SVGID_7_" gradientUnits="userSpaceOnUse" x1="94.72" y1="66.09" x2="102.72" y2="66.09">
	<stop  offset="0" style="stop-color:#13163F"/>
	<stop  offset="1" style="stop-color:#151943"/>
</linearGradient>
<path class="st8" d="M100.8,61.3c-0.6-0.3-1.3-0.5-2-0.5c-0.6,0-1.1,0.1-1.6,0.3s-0.9,0.5-1.2,1v-1.2h-1.3v10.6h1.4v-4
	c0.3,0.4,0.7,0.7,1.2,0.9s1,0.3,1.5,0.3c0.8,0,1.4-0.2,2-0.5c0.6-0.3,1.1-0.8,1.4-1.4c0.3-0.6,0.5-1.3,0.5-2.1s-0.2-1.5-0.5-2.1
	C101.9,62.1,101.4,61.6,100.8,61.3z M101,66.1c-0.2,0.4-0.5,0.7-0.9,1c-0.4,0.2-0.8,0.3-1.3,0.3c-0.5,0-0.9-0.1-1.3-0.3
	c-0.4-0.2-0.7-0.6-0.9-1c-0.2-0.4-0.3-0.9-0.3-1.4s0.1-1,0.3-1.4c0.2-0.4,0.5-0.7,0.9-1c0.4-0.2,0.8-0.3,1.3-0.3
	c0.5,0,0.9,0.1,1.3,0.3c0.4,0.2,0.7,0.5,0.9,1c0.2,0.4,0.3,0.9,0.3,1.4C101.3,65.2,101.2,65.7,101,66.1z"/>
<linearGradient id="SVGID_8_" gradientUnits="userSpaceOnUse" x1="104.67" y1="63.165" x2="106.07" y2="63.165">
	<stop  offset="0" style="stop-color:#13163F"/>
	<stop  offset="1" style="stop-color:#151943"/>
</linearGradient>
<rect x="104.7" y="57.8" class="st9" width="1.4" height="10.8"/>
<path class="st5" d="M109.4,57.5c-0.3,0-0.5,0.1-0.7,0.3s-0.3,0.4-0.3,0.7s0.1,0.5,0.3,0.6c0.2,0.2,0.4,0.3,0.7,0.3s0.5-0.1,0.7-0.3
	s0.3-0.4,0.3-0.7c0-0.2-0.1-0.5-0.3-0.6C109.9,57.6,109.7,57.5,109.4,57.5z"/>
<linearGradient id="SVGID_9_" gradientUnits="userSpaceOnUse" x1="108.74" y1="64.705" x2="110.14" y2="64.705">
	<stop  offset="0" style="stop-color:#13163F"/>
	<stop  offset="1" style="stop-color:#151943"/>
</linearGradient>
<rect x="108.7" y="60.8" class="st10" width="1.4" height="7.7"/>
<linearGradient id="SVGID_10_" gradientUnits="userSpaceOnUse" x1="111.69" y1="63.11" x2="117.13" y2="63.11">
	<stop  offset="0" style="stop-color:#13163F"/>
	<stop  offset="1" style="stop-color:#151943"/>
</linearGradient>
<path class="st11" d="M116.6,60.8h-2.2v-0.7c0-0.9,0.4-1.4,1.2-1.4c0.4,0,0.8,0.1,1.1,0.4l0.4-1.1c-0.2-0.2-0.4-0.3-0.7-0.3
	s-0.6-0.1-0.9-0.1c-0.8,0-1.4,0.2-1.9,0.7c-0.4,0.5-0.7,1.1-0.7,1.8v0.7h-1.3V62h1.3v6.6h1.4V62h2.2L116.6,60.8L116.6,60.8z"/>
<linearGradient id="SVGID_11_" gradientUnits="userSpaceOnUse" x1="116.46" y1="66.165" x2="124.95" y2="66.165">
	<stop  offset="0" style="stop-color:#13163F"/>
	<stop  offset="1" style="stop-color:#151943"/>
</linearGradient>
<path class="st12" d="M120.9,67l-2.7-6.2h-1.5l3.4,7.7l-0.2,0.5c-0.2,0.4-0.4,0.8-0.6,0.9s-0.5,0.3-0.8,0.3c-0.5,0-1-0.2-1.4-0.6
	l-0.6,1.1c0.2,0.2,0.5,0.4,0.9,0.5c0.3,0.1,0.7,0.2,1.1,0.2c0.6,0,1.2-0.2,1.6-0.5c0.4-0.3,0.8-0.9,1.2-1.7l3.8-8.5h-1.4L120.9,67z"
	/>
<linearGradient id="SVGID_12_" gradientUnits="userSpaceOnUse" x1="128.8" y1="63.47" x2="138.36" y2="63.47">
	<stop  offset="0" style="stop-color:#13163F"/>
	<stop  offset="1" style="stop-color:#151943"/>
</linearGradient>
<polygon class="st13" points="136.9,58.4 133.6,63.8 130.4,58.4 128.8,58.4 132.9,65 132.9,68.6 134.3,68.6 134.3,65.1 138.4,58.4 
	"/>
<linearGradient id="SVGID_13_" gradientUnits="userSpaceOnUse" x1="138.05" y1="64.72" x2="146.09" y2="64.72">
	<stop  offset="0" style="stop-color:#13163F"/>
	<stop  offset="1" style="stop-color:#151943"/>
</linearGradient>
<path class="st14" d="M144.1,61.3c-0.6-0.3-1.3-0.5-2.1-0.5s-1.5,0.2-2.1,0.5c-0.6,0.3-1.1,0.8-1.4,1.4c-0.4,0.6-0.5,1.3-0.5,2
	c0,0.8,0.2,1.4,0.5,2s0.8,1.1,1.4,1.4c0.6,0.3,1.3,0.5,2.1,0.5s1.5-0.2,2.1-0.5c0.6-0.3,1.1-0.8,1.4-1.4c0.4-0.6,0.5-1.3,0.5-2
	c0-0.8-0.2-1.4-0.5-2C145.2,62.1,144.7,61.6,144.1,61.3z M144.3,66.1c-0.2,0.4-0.5,0.7-0.9,1c-0.4,0.2-0.8,0.3-1.3,0.3
	s-0.9-0.1-1.3-0.3c-0.4-0.2-0.7-0.6-0.9-1s-0.3-0.9-0.3-1.4s0.1-1,0.3-1.4s0.5-0.7,0.9-1c0.4-0.2,0.8-0.3,1.3-0.3s0.9,0.1,1.3,0.3
	c0.4,0.2,0.7,0.5,0.9,1c0.2,0.4,0.3,0.9,0.3,1.4C144.7,65.2,144.6,65.7,144.3,66.1z"/>
<linearGradient id="SVGID_14_" gradientUnits="userSpaceOnUse" x1="147.95" y1="64.75" x2="155.24" y2="64.75">
	<stop  offset="0" style="stop-color:#13163F"/>
	<stop  offset="1" style="stop-color:#151943"/>
</linearGradient>
<path class="st15" d="M153.8,64.8c0,0.8-0.2,1.4-0.6,1.9c-0.4,0.4-1,0.7-1.8,0.7c-0.7,0-1.2-0.2-1.6-0.6c-0.4-0.4-0.5-0.9-0.5-1.7
	v-4.3H148v4.4c0,1.1,0.3,1.9,0.9,2.5s1.4,0.8,2.4,0.8c0.5,0,1.1-0.1,1.5-0.3c0.5-0.2,0.8-0.5,1.1-0.9v1.2h1.3v-7.7h-1.4L153.8,64.8
	L153.8,64.8z"/>
<linearGradient id="SVGID_15_" gradientUnits="userSpaceOnUse" x1="157.91" y1="64.665" x2="162.07" y2="64.665">
	<stop  offset="0" style="stop-color:#13163F"/>
	<stop  offset="1" style="stop-color:#151943"/>
</linearGradient>
<path class="st16" d="M159.2,62.1v-1.3h-1.3v7.7h1.4v-3.8c0-0.8,0.2-1.5,0.6-1.9s1-0.7,1.8-0.7c0.1,0,0.2,0,0.3,0v-1.4
	c-0.7,0-1.3,0.1-1.7,0.3C159.9,61.3,159.5,61.7,159.2,62.1z"/>
<linearGradient id="SVGID_16_" gradientUnits="userSpaceOnUse" x1="167.06" y1="63.465" x2="174.94" y2="63.465">
	<stop  offset="0" style="stop-color:#13163F"/>
	<stop  offset="1" style="stop-color:#151943"/>
</linearGradient>
<path class="st17" d="M173.2,63.4c-0.5-0.2-1.1-0.4-1.9-0.5c-0.6-0.1-1.1-0.3-1.4-0.4c-0.4-0.1-0.6-0.3-0.9-0.5s-0.4-0.5-0.4-0.8
	c0-0.5,0.2-0.9,0.6-1.2c0.4-0.3,1-0.5,1.9-0.5c0.5,0,0.9,0.1,1.4,0.2c0.5,0.1,0.9,0.3,1.4,0.6l0.5-1.2c-0.4-0.3-0.9-0.5-1.5-0.7
	c-0.6-0.2-1.2-0.2-1.8-0.2c-0.9,0-1.6,0.1-2.2,0.4s-1,0.6-1.3,1s-0.4,0.9-0.4,1.5c0,0.7,0.2,1.2,0.5,1.5c0.3,0.4,0.7,0.7,1.2,0.8
	c0.5,0.2,1.1,0.4,1.9,0.6c0.6,0.2,1.1,0.3,1.4,0.4c0.3,0.1,0.6,0.3,0.9,0.5s0.3,0.5,0.3,0.8c0,0.5-0.2,0.9-0.6,1.2s-1.1,0.4-1.9,0.4
	c-0.6,0-1.3-0.1-1.9-0.3s-1.1-0.5-1.5-0.8l-0.5,1.1c0.4,0.4,1,0.7,1.7,0.9c0.7,0.2,1.5,0.4,2.2,0.4c0.9,0,1.6-0.1,2.2-0.4
	s1-0.6,1.3-1.1c0.3-0.4,0.4-0.9,0.4-1.5c0-0.6-0.2-1.2-0.5-1.5C174.1,63.9,173.7,63.6,173.2,63.4z"/>
<linearGradient id="SVGID_17_" gradientUnits="userSpaceOnUse" x1="176.88" y1="63.17" x2="184.22" y2="63.17">
	<stop  offset="0" style="stop-color:#13163F"/>
	<stop  offset="1" style="stop-color:#151943"/>
</linearGradient>
<path class="st18" d="M181,60.8c-0.6,0-1.1,0.1-1.6,0.3c-0.5,0.2-0.9,0.5-1.1,0.9v-4.2h-1.4v10.8h1.4v-4c0-0.8,0.2-1.5,0.7-1.9
	c0.4-0.4,1-0.7,1.8-0.7c0.7,0,1.2,0.2,1.6,0.6s0.5,0.9,0.5,1.7v4.3h1.4v-4.4c0-1.1-0.3-1.9-0.9-2.5C182.8,61.1,182,60.8,181,60.8z"
	/>
<linearGradient id="SVGID_18_" gradientUnits="userSpaceOnUse" x1="186.14" y1="64.72" x2="194.19" y2="64.72">
	<stop  offset="0" style="stop-color:#13163F"/>
	<stop  offset="1" style="stop-color:#151943"/>
</linearGradient>
<path class="st19" d="M192.2,61.3c-0.6-0.3-1.3-0.5-2.1-0.5s-1.5,0.2-2.1,0.5c-0.6,0.3-1.1,0.8-1.4,1.4c-0.4,0.6-0.5,1.3-0.5,2
	c0,0.8,0.2,1.4,0.5,2s0.8,1.1,1.4,1.4c0.6,0.3,1.3,0.5,2.1,0.5s1.5-0.2,2.1-0.5c0.6-0.3,1.1-0.8,1.4-1.4c0.3-0.6,0.5-1.3,0.5-2
	c0-0.8-0.2-1.4-0.5-2C193.3,62.1,192.9,61.6,192.2,61.3z M192.4,66.1c-0.2,0.4-0.5,0.7-0.9,1c-0.4,0.2-0.8,0.3-1.3,0.3
	s-0.9-0.1-1.3-0.3c-0.4-0.2-0.7-0.6-0.9-1c-0.2-0.4-0.3-0.9-0.3-1.4s0.1-1,0.3-1.4s0.5-0.7,0.9-1c0.4-0.2,0.8-0.3,1.3-0.3
	c0.5,0,0.9,0.1,1.3,0.3c0.4,0.2,0.7,0.5,0.9,1s0.3,0.9,0.3,1.4C192.8,65.2,192.7,65.7,192.4,66.1z"/>
<linearGradient id="SVGID_19_" gradientUnits="userSpaceOnUse" x1="196.13" y1="66.09" x2="204.12" y2="66.09">
	<stop  offset="0" style="stop-color:#13163F"/>
	<stop  offset="1" style="stop-color:#151943"/>
</linearGradient>
<path class="st20" d="M202.2,61.3c-0.6-0.3-1.3-0.5-2-0.5c-0.6,0-1.1,0.1-1.6,0.3s-0.9,0.5-1.2,1v-1.2h-1.3v10.6h1.4v-4
	c0.3,0.4,0.7,0.7,1.2,0.9c0.5,0.2,1,0.3,1.5,0.3c0.8,0,1.4-0.2,2-0.5s1.1-0.8,1.4-1.4c0.3-0.6,0.5-1.3,0.5-2.1s-0.2-1.5-0.5-2.1
	C203.3,62.1,202.8,61.6,202.2,61.3z M202.4,66.1c-0.2,0.4-0.5,0.7-0.9,1c-0.4,0.2-0.8,0.3-1.3,0.3s-0.9-0.1-1.3-0.3
	c-0.4-0.2-0.7-0.6-0.9-1c-0.2-0.4-0.3-0.9-0.3-1.4s0.1-1,0.3-1.4s0.5-0.7,0.9-1s0.8-0.3,1.3-0.3c0.5,0,0.9,0.1,1.3,0.3
	c0.4,0.2,0.7,0.5,0.9,1s0.3,0.9,0.3,1.4C202.7,65.2,202.6,65.7,202.4,66.1z"/>
<linearGradient id="SVGID_20_" gradientUnits="userSpaceOnUse" x1="206.09" y1="66.09" x2="214.08" y2="66.09">
	<stop  offset="0" style="stop-color:#13163F"/>
	<stop  offset="1" style="stop-color:#151943"/>
</linearGradient>
<path class="st21" d="M212.2,61.3c-0.6-0.3-1.3-0.5-2-0.5c-0.6,0-1.1,0.1-1.6,0.3s-0.9,0.5-1.2,1v-1.2h-1.3v10.6h1.4v-4
	c0.3,0.4,0.7,0.7,1.2,0.9c0.5,0.2,1,0.3,1.5,0.3c0.8,0,1.4-0.2,2-0.5s1.1-0.8,1.4-1.4c0.3-0.6,0.5-1.3,0.5-2.1s-0.2-1.5-0.5-2.1
	C213.2,62.1,212.8,61.6,212.2,61.3z M212.3,66.1c-0.2,0.4-0.5,0.7-0.9,1c-0.4,0.2-0.8,0.3-1.3,0.3s-0.9-0.1-1.3-0.3
	c-0.4-0.2-0.7-0.6-0.9-1c-0.2-0.4-0.3-0.9-0.3-1.4s0.1-1,0.3-1.4s0.5-0.7,0.9-1s0.8-0.3,1.3-0.3c0.5,0,0.9,0.1,1.3,0.3
	c0.4,0.2,0.7,0.5,0.9,1s0.3,0.9,0.3,1.4C212.7,65.2,212.6,65.7,212.3,66.1z"/>
<path class="st5" d="M216.7,57.5c-0.3,0-0.5,0.1-0.7,0.3s-0.3,0.4-0.3,0.7s0.1,0.5,0.3,0.6c0.2,0.2,0.4,0.3,0.7,0.3s0.5-0.1,0.7-0.3
	s0.3-0.4,0.3-0.7c0-0.2-0.1-0.5-0.3-0.6S217,57.5,216.7,57.5z"/>
<linearGradient id="SVGID_21_" gradientUnits="userSpaceOnUse" x1="216.03" y1="64.705" x2="217.43" y2="64.705">
	<stop  offset="0" style="stop-color:#13163F"/>
	<stop  offset="1" style="stop-color:#151943"/>
</linearGradient>
<rect x="216" y="60.8" class="st22" width="1.4" height="7.7"/>
<linearGradient id="SVGID_22_" gradientUnits="userSpaceOnUse" x1="220.11" y1="64.675" x2="227.45" y2="64.675">
	<stop  offset="0" style="stop-color:#13163F"/>
	<stop  offset="1" style="stop-color:#151943"/>
</linearGradient>
<path class="st23" d="M224.2,60.8c-0.6,0-1.2,0.1-1.6,0.3s-0.9,0.5-1.1,0.9v-1.2h-1.3v7.7h1.4v-4c0-0.8,0.2-1.5,0.7-1.9
	c0.4-0.4,1-0.7,1.8-0.7c0.7,0,1.2,0.2,1.6,0.6s0.5,0.9,0.5,1.7v4.3h1.4v-4.4c0-1.1-0.3-1.9-0.9-2.5C226,61.1,225.2,60.8,224.2,60.8z
	"/>
<linearGradient id="SVGID_23_" gradientUnits="userSpaceOnUse" x1="229.37" y1="66.13" x2="237.51" y2="66.13">
	<stop  offset="0" style="stop-color:#13163F"/>
	<stop  offset="1" style="stop-color:#151943"/>
</linearGradient>
<path class="st24" d="M236.2,62c-0.3-0.4-0.7-0.7-1.2-1s-1-0.3-1.6-0.3c-0.7,0-1.4,0.2-2,0.5s-1.1,0.8-1.4,1.3s-0.5,1.2-0.5,2
	c0,0.7,0.2,1.4,0.5,1.9s0.8,1,1.4,1.3s1.3,0.5,2,0.5c0.6,0,1.1-0.1,1.6-0.3c0.5-0.2,0.9-0.5,1.2-0.9v0.6c0,0.9-0.2,1.5-0.6,2
	s-1.1,0.6-2,0.6c-0.6,0-1.1-0.1-1.6-0.3s-1-0.4-1.3-0.7l-0.7,1.1c0.4,0.4,0.9,0.7,1.6,0.8c0.7,0.2,1.4,0.3,2.1,0.3
	c1.3,0,2.3-0.3,3-1c0.7-0.7,1-1.7,1-3v-6.7h-1.3L236.2,62L236.2,62z M235.8,65.8c-0.2,0.4-0.5,0.7-0.9,0.9c-0.4,0.2-0.9,0.3-1.4,0.3
	c-0.5,0-1-0.1-1.4-0.3c-0.4-0.2-0.7-0.5-0.9-0.9c-0.2-0.4-0.3-0.8-0.3-1.3c0-0.8,0.2-1.3,0.7-1.8c0.5-0.5,1.1-0.7,1.9-0.7
	c0.8,0,1.4,0.2,1.9,0.7c0.5,0.5,0.7,1.1,0.7,1.8C236.1,65,236,65.4,235.8,65.8z"/>
<g>
	<linearGradient id="SVGID_24_" gradientUnits="userSpaceOnUse" x1="4.89" y1="8.235" x2="11.74" y2="8.235">
		<stop  offset="0" style="stop-color:#13163F"/>
		<stop  offset="1" style="stop-color:#151943"/>
	</linearGradient>
	<path class="st25" d="M4.9,5c2.3,0.6,4.8,1.1,6.8,2.4c-1.1,1.2-2,2.6-2.7,4C7.4,9.5,5.9,7.4,4.9,5z"/>
	<linearGradient id="SVGID_25_" gradientUnits="userSpaceOnUse" x1="10.63" y1="31.84" x2="54.5515" y2="31.84">
		<stop  offset="0" style="stop-color:#13163F"/>
		<stop  offset="1" style="stop-color:#151943"/>
	</linearGradient>
	<path class="st26" d="M13.4,9.1c8.2,1.6,16.3,3.6,24.1,6.3c3.7,1.3,7.2,3,10.6,5.1c3.7,2.5,6.8,6.5,6.4,11.2
		c-0.4,4.2-3.5,7.2-6.3,10c-1.7-1.3-3.5-2.4-5-3.8c2.2-1.5,4.5-3.3,5.2-5.9c0.5-2.7-1.7-4.9-3.6-6.4c-4.9-3.5-10.9-5.1-16.6-6.9
		c-0.6-0.2-1.1-0.4-1.7-0.5c-3.2-0.8-6.4-1.9-9.7-2c-1,7,3.2,13.2,7.7,18c5,5.5,11.2,10,17.8,13.5c0.5,0.3,1.1,0.6,1.2,1.3
		c0.2,1.9,0.2,3.7,0.5,5.6c-9.6-4-18.4-10.1-25.3-17.9c-4.2-5.1-7.6-11.1-8-17.9C10.7,15.4,11.5,11.9,13.4,9.1z"/>
	<linearGradient id="SVGID_26_" gradientUnits="userSpaceOnUse" x1="21.44" y1="56.569" x2="34.65" y2="56.569">
		<stop  offset="0" style="stop-color:#13163F"/>
		<stop  offset="1" style="stop-color:#151943"/>
	</linearGradient>
	<path class="st27" d="M29.4,50.3c2-0.1,3.5,1.7,5.3,2.4c-2,2.4-3.8,4.9-5.3,7.7c-2.6,0.9-5.4,1.1-7.9,2.5
		C22.8,58,25.8,53.8,29.4,50.3z"/>
</g>
<g>
	<path class="st28" d="M21.5,20.8c2.8,0.8,5.6,1.3,8.3,2.4c1.4,2.6,3,5.1,5.1,7.3c0.7,0.8,2,0.5,2.8,0.1c2-0.8,3.8-1.9,5.8-2.7
		c0.1,2.1,0.1,4.2,0.1,6.2c-3.1,1.3-5.9,3.2-8.9,4.6C29.2,33.7,24.2,27.8,21.5,20.8z"/>
	<path class="st28" d="M38.4,40.8c1.5-1.2,3.2-2.1,4.9-3c1.5,1.5,3.3,2.6,5,3.8c2.2,2.2,4.8,4.2,5.8,7.3c1.3,3.5,0.4,7.7-2.1,10.4
		c-4.5,5-11,7.2-17.1,9.5c-7.1,1.9-14,4.2-21.3,5.4c-2.5-3.4-3.4-7.9-2.9-12c1.2-6.6,5.2-12.4,9.7-17.2c0.5-0.6,1.5-1.4,2.3-0.8
		c1.2,1,2.3,2.2,3.6,3.1c-5.3,5.2-10.6,11.9-9.5,19.8c7-1.1,13.9-3.4,20.6-5.8c3.4-1.2,6.8-2.9,9.5-5.5c1.5-1.4,2.4-3.8,1.3-5.7
		c-2.4-3.7-6.5-5.7-9.7-8.5C38.3,41.5,38.3,41,38.4,40.8z"/>
	<path class="st28" d="M5.2,77.9c0.8-2.3,2.3-4.1,3.7-6c0.6,1.5,2.2,2.6,2.3,4.2C9.2,76.8,7.3,77.7,5.2,77.9z"/>
</g>
</svg>
